<?xml version="1.0" encoding="utf-8"?>
<!-- Generator: Adobe Illustrator 26.2.1, SVG Export Plug-In . SVG Version: 6.00 Build 0)  -->
<svg version="1.1" id="Text" xmlns="http://www.w3.org/2000/svg" xmlns:xlink="http://www.w3.org/1999/xlink" x="0px" y="0px"
	 viewBox="0 0 241.9 23.8" style="enable-background:new 0 0 241.9 23.8;" xml:space="preserve">
<style type="text/css">
	.st0{fill:#14008C;}
</style>
<g>
	<polygon class="st0" points="184.8,20 173.9,2.9 169.5,2.9 169.5,23.2 172.3,23.2 172.3,5.6 183.5,23.2 186.1,23.2 197.2,5.6 
		197.2,23.2 200.1,23.2 200.1,2.9 195.7,2.9 	"/>
	<path class="st0" d="M216.1,5.8c-3.8,0-7,0.6-10.4,1.8l1.2,2.3c4-1.3,6.8-1.5,9.1-1.5c2.3,0,7.9,0.4,7.9,5v0.2
		c-2.8-0.9-6.2-1.5-9.5-1.5c-5.7,0-10.2,1.5-10.2,5.9c0,3.9,2.6,5.8,8.1,5.8c4.6,0,8.2-1.3,11.6-2.7v2.1h2.8v-8.9
		C226.6,7.9,223,5.8,216.1,5.8z M223.9,18.5c-3.3,1.3-7.8,2.7-10.9,2.7c-3.5,0-5.8-0.6-5.8-3.2s3.2-3.5,7.2-3.5c4,0,7,0.8,9.4,1.5
		V18.5z"/>
	<rect x="231.4" class="st0" width="2.8" height="23.2"/>
	<rect x="239" class="st0" width="2.8" height="23.2"/>
	<path class="st0" d="M0,12.6C0,8.9-0.2,5.3-0.5,2h22.7L22,6.2H5.2v4.1H21v3.9H5.2V19H22l0.2,4.1H-0.5C-0.2,19.8,0,16.2,0,12.6z"/>
	<path class="st0" d="M31.8,23.2V17c0-4.5,3.6-7.4,7.1-7.4c3.5,0,5,2,5,6v7.5H49v-6.4c0-5.4,3.6-7,6.7-7c3.5,0,4.9,2,4.9,5.9v7.6
		h5.1v-8.4c0-4.8-2.2-9.6-8.9-9.6c-4.5,0-7.4,1.5-9.3,4.7c-1-3.2-3.6-4.7-7.3-4.7c-4,0-6.7,1.7-8.5,4.2V6.2h-5.4
		c0.2,2.3,0.3,5.2,0.3,8.5s-0.2,6.2-0.3,8.5H31.8z"/>
	<path class="st0" d="M82.1,19.7c-4.9,0-7.9-2-7.9-5.2c0-3.1,3-5.2,7.9-5.2s7.9,2,7.9,5.2S87,19.7,82.1,19.7z M82.1,5.3
		c-7.3,0-12.8,3.4-12.8,9.2s5.5,9.2,12.9,9.2c7.3,0,12.9-3.4,12.9-9.2C95,8.7,89.5,5.3,82.1,5.3z"/>
	<path class="st0" d="M146,13c-1.5-0.2-3.6-0.5-5.4-0.6c-1.5-0.1-3-0.2-4.2-0.2c-1-0.1-3.8-0.2-3.6-1.6c0.2-1.5,4.5-1.7,7.9-1.5
		c3.5,0.3,6,1,8.3,2.3l1.6-3.4c-2.5-1.6-7-2.8-11.3-2.8c-9.4,0-11.4,2.9-11.4,5.3c0,2.6,1.8,4.2,5.5,4.9c1.8,0.3,3.9,0.6,6.5,0.6
		c1.5,0.1,2.8,0.2,4,0.3c1.1,0.2,1.5,0.2,1.9,0.5c0.4,0.2,0.8,0.6,0.7,1.1c-0.1,0.9-1.7,1.9-7.4,1.6c-4.1-0.2-7.7-1.3-10.3-3.1
		l-1.9,3.6c2.3,1.5,6,3,12.1,3.3c0.6,0,1.1,0.1,1.7,0.1c9.1,0,10.6-3.4,10.6-5.9C151.5,15.3,149.2,13.6,146,13"/>
	<path class="st0" d="M98.3,23.2c0.2-2.3,0.3-5.2,0.3-8.5s-0.2-6.2-0.3-8.5h5.4v3.3c1.9-2.3,5-4.2,10.3-4.2c6.5,0,10,4.1,10,9.8v8.1
		H119v-7.4c0-4.1-2.2-6.2-6.5-6.2c-4.6,0-8.7,2.8-8.7,7.9v5.7C103.8,23.2,98.3,23.2,98.3,23.2z"/>
</g>
</svg>
